<?xml version="1.0" standalone="no"?>
<!DOCTYPE svg PUBLIC "-//W3C//DTD SVG 20010904//EN"
 "http://www.w3.org/TR/2001/REC-SVG-20010904/DTD/svg10.dtd">
<svg version="1.0" xmlns="http://www.w3.org/2000/svg"
 width="94.000000pt" height="94.000000pt" viewBox="0 0 94.000000 94.000000"
 preserveAspectRatio="xMidYMid meet">
<metadata>
Created by potrace 1.11, written by Peter Selinger 2001-2013
</metadata>
<g transform="translate(0.000000,94.000000) scale(0.100000,-0.100000)"
fill="#000000" stroke="none">
<path d="M246 875 c-47 -17 -91 -57 -119 -110 -21 -38 -22 -53 -22 -295 0
-243 1 -257 22 -296 40 -75 116 -124 194 -124 48 0 111 30 283 133 180 109
220 141 243 196 19 45 19 137 0 182 -19 46 -84 109 -112 109 -39 0 -38 -29 1
-63 48 -42 66 -81 66 -137 0 -49 -18 -94 -48 -122 -35 -31 -357 -218 -396
-230 -78 -23 -166 30 -189 114 -6 25 -9 124 -7 262 3 223 3 223 30 263 32 49
98 79 150 69 18 -3 80 -33 137 -65 104 -59 131 -65 131 -30 0 22 -115 100
-200 136 -63 26 -108 28 -164 8z"/>
<path d="M303 720 c-39 -16 -43 -40 -43 -248 0 -180 2 -202 19 -223 34 -43 71
-32 241 70 85 51 160 100 167 109 16 22 16 72 0 94 -17 22 -306 195 -337 202
-14 3 -35 1 -47 -4z m193 -146 c79 -48 144 -92 144 -99 0 -14 -281 -185 -304
-185 -14 0 -16 23 -16 185 0 162 2 185 16 185 8 0 80 -39 160 -86z"/>
</g>
</svg>
