<?xml version="1.0" encoding="UTF-8"?>
<svg width="24px" height="26px" viewBox="0 0 24 26" version="1.1" xmlns="http://www.w3.org/2000/svg" xmlns:xlink="http://www.w3.org/1999/xlink">
    <!-- Generator: Sketch 51.3 (57544) - http://www.bohemiancoding.com/sketch -->
    <title>logo-button-grey</title>
    <desc>Created with Sketch.</desc>
    <defs></defs>
    <g id="Page-2" stroke="none" stroke-width="1" fill="none" fill-rule="evenodd">
        <g id="Artboard" transform="translate(-160.000000, -153.000000)" fill="#BBBDCD">
            <g id="logo-button-grey" transform="translate(160.000000, 153.000000)">
                <g id="Group-Copy" transform="translate(0.000000, 0.481481)">
                    <path d="M7.43896883,5.56465124 C7.17484484,6.02579126 6.58805242,6.18484346 6.1283313,5.91990426 C5.66861017,5.65496507 5.51004737,5.06636157 5.77417137,4.60522155 L6.03370666,4.15209305 C7.88257463,0.924112927 11.9901215,-0.189252432 15.2081694,1.66532192 C16.2394119,2.25963129 17.0949399,3.11782552 17.6873896,4.15226878 L23.5934921,14.4645836 C25.4422633,17.6926195 24.3322002,21.8128105 21.1140967,23.6672878 C20.095506,24.254265 18.941314,24.5631525 17.7666003,24.5631525 L5.95398416,24.5631525 C2.24263064,24.5631525 -0.766015836,21.5452201 -0.766015836,17.8224118 C-0.766015836,16.6440037 -0.458042834,15.4861843 0.127193036,14.4644079 L3.11114385,9.25466112 C3.37526784,8.7935211 3.96206025,8.63446891 4.42178138,8.8994081 C4.88150251,9.16434729 5.04006531,9.75295079 4.77594131,10.2140908 L1.7919905,15.4238376 C1.37396488,16.1536779 1.15398416,16.9806917 1.15398416,17.8224118 C1.15398416,20.4815606 3.30301736,22.6372266 5.95398416,22.6372266 L17.7666003,22.6372266 C18.6056815,22.6372266 19.4301044,22.4165927 20.1576692,21.9973232 C22.4563145,20.6726966 23.2492167,17.729703 21.9286659,15.4239631 L16.0225633,5.11164827 C15.599385,4.37276022 14.9882936,3.75976434 14.2516918,3.33525765 C11.9530862,2.01056168 9.01912411,2.80582265 7.69850413,5.11152275 L7.43896883,5.56465124 Z" id="Triangle" fill-rule="nonzero" transform="translate(11.860860, 12.665685) rotate(90.000000) translate(-11.860860, -12.665685) "></path>
                    <path d="M11.9510429,7.7011129 C11.7235953,7.56451686 11.4288204,7.63873568 11.2926446,7.86688529 L5.8991411,16.9031908 C5.85453142,16.9779301 5.83097142,17.0634091 5.83097142,17.1505199 C5.83097142,17.4164347 6.04587474,17.6320013 6.31097142,17.6320013 L17.0975301,17.6320013 C17.1843669,17.6320013 17.2695771,17.6083719 17.344083,17.5636303 C17.5715356,17.4270426 17.6455368,17.1313606 17.5093694,16.903206 L12.1163143,7.86690042 C12.0756838,7.79882219 12.0189102,7.74187131 11.9510429,7.7011129 Z M13.7636717,6.87764488 L19.1567269,15.9139504 C19.837564,17.0547235 19.4675577,18.5331338 18.3302947,19.2160722 C17.9577654,19.4397799 17.531714,19.5579273 17.0975301,19.5579273 L6.31097142,19.5579273 C4.98548802,19.5579273 3.91097142,18.4800943 3.91097142,17.1505199 C3.91097142,16.7149659 4.02877141,16.2875713 4.2518198,15.9138748 L9.64532331,6.8775692 C10.3262021,5.73682116 11.8000769,5.36572704 12.937315,6.04870728 C13.2766514,6.25249931 13.5605192,6.53725369 13.7636717,6.87764488 Z" id="Triangle" fill-rule="nonzero" transform="translate(11.704433, 12.632184) rotate(90.000000) translate(-11.704433, -12.632184) "></path>
                </g>
            </g>
        </g>
    </g>
</svg>