<?xml version="1.0" encoding="UTF-8"?>
<svg width="50px" height="53px" viewBox="0 0 50 53" version="1.1" xmlns="http://www.w3.org/2000/svg" xmlns:xlink="http://www.w3.org/1999/xlink">
    <!-- Generator: Sketch 51.3 (57544) - http://www.bohemiancoding.com/sketch -->
    <title>logo-button</title>
    <desc>Created with Sketch.</desc>
    <defs></defs>
    <g id="Page-2" stroke="none" stroke-width="1" fill="none" fill-rule="evenodd">
        <g id="Artboard" transform="translate(-131.000000, -81.000000)" fill="#FFFFFF">
            <g id="logo-button" transform="translate(131.000000, 80.000000)">
                <g id="Group-Copy" transform="translate(2.000000, 3.000000)">
                    <path d="M13.4978517,9.55735258 C12.9475934,10.5151049 11.7251092,10.8454441 10.7673569,10.2951858 C9.80960453,9.74492745 9.47926536,8.52244326 10.0295237,7.56469092 L10.5702222,6.62357788 C14.4220305,-0.080688537 22.9794198,-2.39306274 29.6836862,1.45874553 C31.8321082,2.69308036 33.614458,4.47548377 34.8487283,6.62394286 L47.1531085,28.0418275 C51.0047152,34.7462097 48.6920837,43.3035295 41.9877015,47.1551362 C39.8656375,48.3742427 37.4610708,49.0157783 35.0137506,49.0157783 L10.4041337,49.0157783 C2.67214718,49.0157783 -3.59586633,42.7477648 -3.59586633,35.0157783 C-3.59586633,32.5683154 -2.9542559,30.1636136 -1.73501451,28.0414625 L4.48154968,17.2212192 C5.03180801,16.2634669 6.2542922,15.9331277 7.21204454,16.4833861 C8.16979689,17.0336444 8.50013606,18.2561286 7.94987774,19.2138809 L1.73331354,30.0341242 C0.862426833,31.5499464 0.404133674,33.2675905 0.404133674,35.0157783 C0.404133674,40.5386258 4.88128618,45.0157783 10.4041337,45.0157783 L35.0137506,45.0157783 C36.7618365,45.0157783 38.4793841,44.5575386 39.9951441,43.6867482 C44.7839885,40.9356006 46.4358682,34.8232293 43.6847205,30.0343849 L31.3803403,8.61650025 C30.4987187,7.08188661 29.2256117,5.80874132 27.6910246,4.92707359 C22.9022628,2.17578196 16.7898419,3.82747782 14.0385503,8.61623955 L13.4978517,9.55735258 Z" id="Triangle" fill-rule="nonzero" transform="translate(22.710125, 24.305653) rotate(90.000000) translate(-22.710125, -24.305653) "></path>
                    <path d="M22.8980061,13.9946191 C22.4241569,13.7109196 21.8100424,13.8650664 21.5263429,14.3389156 L10.2898773,33.1066271 C10.1969405,33.2618549 10.1478571,33.4393881 10.1478571,33.6203105 C10.1478571,34.1725952 10.5955724,34.6203105 11.1478571,34.6203105 L33.6198543,34.6203105 C33.8007643,34.6203105 33.9782857,34.5712339 34.1335062,34.4783092 C34.6073658,34.194627 34.7615351,33.5805181 34.477853,33.1066586 L23.2423214,14.338947 C23.1576745,14.1975538 23.0393963,14.0792712 22.8980061,13.9946191 Z M26.6743161,12.2843394 L37.9098476,31.0520509 C39.3282582,33.4213488 38.5574118,36.4918932 36.1881139,37.9103038 C35.4120113,38.3749276 34.5244042,38.6203105 33.6198543,38.6203105 L11.1478571,38.6203105 C8.38643338,38.6203105 6.14785712,36.3817342 6.14785712,33.6203105 C6.14785712,32.7156984 6.39327376,31.8280326 6.85795791,31.0518937 L18.0944236,12.2841822 C19.512921,9.91493626 22.5834936,9.14420232 24.9527395,10.5626997 C25.6596904,10.9859601 26.2510816,11.577373 26.6743161,12.2843394 Z" id="Triangle" fill-rule="nonzero" transform="translate(22.384236, 24.236075) rotate(90.000000) translate(-22.384236, -24.236075) "></path>
                </g>
            </g>
        </g>
    </g>
</svg>