<svg xmlns="http://www.w3.org/2000/svg" width="24" height="27" viewBox="0 0 24 27">
    <g fill="#6900FF" fill-rule="nonzero">
        <path d="M19.095 7.284a.899.899 0 0 1 1.247-.34c1.158.69 2.076 1.602 2.704 2.688.631 1.09.954 2.325.954 3.654 0 1.329-.323 2.564-.954 3.654-.627 1.083-1.542 1.993-2.695 2.683l-8.945 5.425c-1.228.732-2.21 1.157-3.198 1.37-1.223.266-2.41.188-3.654-.247-1.393-.485-2.529-1.41-3.332-2.697C.427 22.2 0 20.622 0 18.983V7.589C0 5.95.427 4.373 1.222 3.097 2.025 1.811 3.162.886 4.554.4 5.799-.034 6.986-.112 8.208.152c.988.214 1.97.639 3.195 1.37l4.215 2.556a.95.95 0 0 1 .32 1.282.9.9 0 0 1-1.25.33l-4.167-2.527c-1.087-.65-1.899-1.007-2.684-1.177-.894-.194-1.77-.135-2.698.189-.99.345-1.804 1.009-2.381 1.934-.604.968-.93 2.189-.93 3.48v11.394c0 1.29.326 2.512.93 3.48.577.925 1.39 1.588 2.381 1.934.928.323 1.805.382 2.698.189.778-.169 1.588-.523 2.64-1.15l8.945-5.425c.89-.532 1.586-1.217 2.053-2.024.46-.795.697-1.708.697-2.701 0-.993-.237-1.906-.697-2.702-.467-.806-1.161-1.491-2.047-2.02a.95.95 0 0 1-.333-1.28z"/>
        <path d="M17.047 12.857c0-.333-.105-.5-.5-.734L8.72 7.518l.19-.315.188-.315c-.003-.002-.003-.002-.42.601l.029.02c-.025-.014-.025-.014-.049-.03a40.782 40.782 0 0 0-.402-.242c-.451-.255-.762-.319-1.009-.232-.131.045-.293.42-.293 1v9.704c0 .58.162.955.293 1 .247.087.558.023 1.009-.231a11.343 11.343 0 0 0 .4-.243l.04-.024c.006-.004.125.209.357.639l.037-.019a7.156 7.156 0 0 0-.185-.317l-.19-.315 7.837-4.61c.391-.232.496-.4.496-.732zm1.788.367c-.1.81-.547 1.448-1.36 1.93l-7.83 4.606-.049.03a32.219 32.219 0 0 1-.456.275c-.898.506-1.687.644-2.487.364-.953-.332-1.51-1.386-1.51-2.72V8.005c0-1.333.557-2.387 1.51-2.72.8-.28 1.589-.142 2.487.364a12.31 12.31 0 0 1 .458.276l.04.025 7.833 4.607c.817.485 1.263 1.123 1.364 1.934.015.118.022.24.022.366v.367h-1.81v-.733h1.81v.366c0 .126-.007.248-.022.367z"/>
    </g>
</svg>